# xmcd
#
# Track frame offsets: 
#        151
#        34121
#        61986
#        94406
#        120240
#        137776
#        202837
#        226838
#        261516
#        292721
#
# Disc length: 4179 seconds
#
# Revision: 0
# Processed by: cddbd v1.5.1PL0 Copyright (c) Steve Scherf et al.
# Submitted via: ExactAudioCopy v0.95a4
#
DISCID=8510510a
DTITLE=Ry Cooder and David Lindley Family - Live In Vienna, Staatsoper 0
DTITLE=7.06.1995 CD1
DYEAR=1995
DGENRE=Crossover
TTITLE0=Try To Find A Way To The Promised Land
TTITLE1=Jesus On The Mainline
TTITLE2=Mercury Blues
TTITLE3=Instrumental
TTITLE4=Si Beag Si Mor
TTITLE5=Vigilante Man
TTITLE6=All Shook Up
TTITLE7=That's The Way The Girls Are In Texas
TTITLE8=How Can A Poor Man Stand Such Times And Live
TTITLE9=About To Make Me Leave Home
EXTD=
EXTT0=
EXTT1=
EXTT2=
EXTT3=
EXTT4=
EXTT5=
EXTT6=
EXTT7=
EXTT8=
EXTT9=
PLAYORDER=
